<svg width="242" height="227" viewBox="0 0 242 227" fill="none" xmlns="http://www.w3.org/2000/svg">
<path d="M76.8529 0C74.0912 0.00332663 71.8531 2.36481 71.8501 5.27882V97.7823C71.8531 100.696 74.0911 103.058 76.8529 103.061H200.86C203.622 103.058 205.86 100.696 205.863 97.7823V5.27882C205.86 2.36481 203.622 0.00331806 200.86 0H76.8529Z" fill="#E6E6E6"/>
<path d="M156.262 98.5593H80.3566C77.3842 98.5558 74.9754 96.0141 74.9722 92.8778V8.978C74.9754 5.84171 77.3842 3.30004 80.3566 3.29651H197.356C200.329 3.30002 202.738 5.84166 202.741 8.978V49.5176C202.712 76.5898 181.919 98.5286 156.262 98.5593Z" fill="white"/>
<path d="M126.529 26.5151H108.491C107.54 26.5151 106.769 25.7014 106.769 24.6976C106.769 23.6938 107.54 22.8801 108.491 22.8801H126.529C127.48 22.8801 128.251 23.6938 128.251 24.6976C128.251 25.7014 127.48 26.5151 126.529 26.5151Z" fill="#7281FF"/>
<path d="M166.963 33.9487H108.491C107.54 33.9487 106.769 33.135 106.769 32.1312C106.769 31.1274 107.54 30.3137 108.491 30.3137H166.963C167.914 30.3137 168.686 31.1274 168.686 32.1312C168.686 33.135 167.914 33.9487 166.963 33.9487Z" fill="#E6E6E6"/>
<path d="M166.963 42.4813H108.491C107.54 42.4813 106.769 41.6676 106.769 40.6638C106.769 39.66 107.54 38.8463 108.491 38.8463H166.963C167.914 38.8463 168.686 39.66 168.686 40.6638C168.686 41.6676 167.914 42.4813 166.963 42.4813Z" fill="#E6E6E6"/>
<path d="M166.963 51.014H108.491C107.54 51.014 106.769 50.2003 106.769 49.1965C106.769 48.1927 107.54 47.379 108.491 47.379H166.963C167.914 47.379 168.686 48.1927 168.686 49.1965C168.686 50.2003 167.914 51.014 166.963 51.014Z" fill="#E6E6E6"/>
<path d="M166.963 59.5467H108.491C107.54 59.5467 106.769 58.733 106.769 57.7292C106.769 56.7255 107.54 55.9117 108.491 55.9117H166.963C167.914 55.9117 168.686 56.7255 168.686 57.7292C168.686 58.733 167.914 59.5467 166.963 59.5467Z" fill="#E6E6E6"/>
<path d="M213.846 64.5839H189.367C184.499 64.5839 180.553 68.7477 180.553 73.8841C180.553 79.0204 176.607 83.1842 171.739 83.1842H90.1313C85.2633 83.1842 81.317 79.0204 81.317 73.8841L79.7034 64.4562L64.9108 44.5577C63.9287 43.2152 62.4074 42.4355 60.8002 42.4508H33.0585C30.1748 42.4544 27.8379 44.9201 27.8345 47.9628L27.2617 64.4562H16.7738C7.50991 64.4562 0 72.3801 0 82.1547V197.425C0 206.099 6.66442 213.131 14.8854 213.131H213.845C222.062 213.12 228.719 206.094 228.727 197.425V80.2856C228.727 71.6138 222.064 64.5839 213.846 64.5839Z" fill="#E6E6E6"/>
<path d="M79.712 64.0305H27.835V47.5371C27.8384 44.4944 30.1753 42.0288 33.059 42.0251H60.8007C62.4079 42.0098 63.9292 42.7895 64.9113 44.132L79.712 64.0305Z" fill="#CCCCCC"/>
<path d="M106.274 200.447H19.6527C13.9436 200.44 9.317 195.559 9.31055 189.535V164.539C9.31699 158.516 13.9436 153.634 19.6527 153.627H123.618C129.328 153.634 133.954 158.516 133.961 164.539V171.234C133.943 187.36 121.558 200.429 106.274 200.447Z" fill="white"/>
<path d="M44.5872 172.481H23.2071C20.3108 172.481 17.9629 170.004 17.9629 166.948C17.9629 163.892 20.3108 161.415 23.2071 161.415H44.5872C47.4834 161.411 49.8344 163.885 49.8381 166.941C49.8418 169.997 47.497 172.477 44.6007 172.481H44.5872Z" fill="#7281FF"/>
<path d="M117.199 189.932H23.2071C20.3108 189.932 17.9629 187.455 17.9629 184.399C17.9629 181.343 20.3108 178.866 23.2071 178.866H117.199C120.095 178.862 122.446 181.336 122.45 184.392C122.454 187.448 120.109 189.928 117.212 189.932L117.199 189.932Z" fill="#7281FF"/>
<path d="M220.653 226.926C208.911 226.926 199.393 216.883 199.393 204.494C199.393 192.105 208.911 182.062 220.653 182.062C232.395 182.062 241.913 192.105 241.913 204.494C241.913 216.883 232.395 226.926 220.653 226.926Z" fill="#7281FF"/>
<path d="M229.041 202.281H222.75V195.643C222.75 194.421 221.811 193.43 220.653 193.43C219.494 193.43 218.555 194.421 218.555 195.643V202.281H212.264C211.105 202.281 210.167 203.272 210.167 204.494C210.167 205.716 211.105 206.707 212.264 206.707H218.555V213.345C218.555 214.567 219.494 215.558 220.653 215.558C221.811 215.558 222.75 214.567 222.75 213.345V206.707H229.041C230.2 206.707 231.138 205.716 231.138 204.494C231.138 203.272 230.2 202.281 229.041 202.281Z" fill="white"/>
</svg>
